<?xml version="1.0" encoding="UTF-8"?>
<!DOCTYPE svg PUBLIC "-//W3C//DTD SVG 1.1//EN" "http://www.w3.org/Graphics/SVG/1.1/DTD/svg11.dtd">
<svg xmlns="http://www.w3.org/2000/svg" version="1.1" width="400px" height="380px" style="shape-rendering:geometricPrecision; text-rendering:geometricPrecision; image-rendering:optimizeQuality; fill-rule:evenodd; clip-rule:evenodd" xmlns:xlink="http://www.w3.org/1999/xlink">
<g><path style="opacity:0.977" fill="#7960b6" d="M 345.5,82.5 C 339.833,82.5 334.167,82.5 328.5,82.5C 328.5,70.8333 328.5,59.1667 328.5,47.5C 234.332,47.1673 140.332,47.5006 46.5,48.5C 46.8464,140.467 46.8464,232.467 46.5,324.5C 46.5,326.167 46.5,327.833 46.5,329.5C 140.5,329.5 234.5,329.5 328.5,329.5C 328.5,317.833 328.5,306.167 328.5,294.5C 334.167,294.5 339.833,294.5 345.5,294.5C 345.5,311.833 345.5,329.167 345.5,346.5C 240.105,347.81 134.771,347.81 29.5,346.5C 29.1672,240.999 29.5005,135.665 30.5,30.5C 135.322,29.5725 239.988,29.2392 344.5,29.5C 345.5,47.1541 345.833,64.8208 345.5,82.5 Z"/></g>
<g><path style="opacity:0.383" fill="#b9acd8" d="M 46.5,48.5 C 140.332,47.5006 234.332,47.1673 328.5,47.5C 328.5,59.1667 328.5,70.8333 328.5,82.5C 334.167,82.5 339.833,82.5 345.5,82.5C 339.69,83.4896 333.69,83.8229 327.5,83.5C 327.5,71.8333 327.5,60.1667 327.5,48.5C 233.833,48.5 140.167,48.5 46.5,48.5 Z"/></g>
<g><path style="opacity:0.987" fill="#785fb5" d="M 285.5,90.5 C 293.461,89.0461 300.294,91.0461 306,96.5C 306.862,98.087 307.529,99.7536 308,101.5C 307.128,122.165 305.961,142.832 304.5,163.5C 304.833,164.167 305.167,164.833 305.5,165.5C 317.739,156.525 331.406,153.358 346.5,156C 359.935,158.764 369.102,166.598 374,179.5C 376.941,187.264 378.941,195.264 380,203.5C 383.123,227.486 383.79,251.486 382,275.5C 372.226,285.043 361.726,285.877 350.5,278C 349.54,276.581 348.707,275.081 348,273.5C 346.717,254.552 346.051,235.552 346,216.5C 345.714,208.739 344.714,201.072 343,193.5C 341.548,186.18 337.048,182.847 329.5,183.5C 316.88,184.282 309.38,190.948 307,203.5C 305.974,208.785 305.307,214.118 305,219.5C 304.975,238.59 304.309,257.59 303,276.5C 291.701,286.029 280.701,285.695 270,275.5C 268.48,221.175 269.48,166.842 273,112.5C 271.802,101.876 275.968,94.5427 285.5,90.5 Z"/></g>
<g><path style="opacity:0.988" fill="#785eb5" d="M 210.5,145.5 C 205.36,144.512 200.026,144.179 194.5,144.5C 194.5,149.167 194.5,153.833 194.5,158.5C 193.281,198.514 192.114,238.514 191,278.5C 189.321,282.77 186.155,285.27 181.5,286C 172.925,287.57 164.925,286.237 157.5,282C 156.54,280.581 155.707,279.081 155,277.5C 154.246,236.11 155.412,194.777 158.5,153.5C 159.477,150.713 159.81,147.713 159.5,144.5C 156.287,144.19 153.287,144.523 150.5,145.5C 143.206,146.298 135.873,146.965 128.5,147.5C 125.514,147.618 122.848,146.952 120.5,145.5C 120.027,144.094 119.027,143.427 117.5,143.5C 112.587,138.926 110.754,133.259 112,126.5C 113.444,119.839 117.611,116.006 124.5,115C 131.467,114.002 138.467,113.336 145.5,113C 171.167,112.333 196.833,112.333 222.5,113C 240.558,113.706 246.725,122.539 241,139.5C 238.512,143.325 235.012,145.492 230.5,146C 223.816,146.546 217.149,146.38 210.5,145.5 Z"/></g>
<g><path style="opacity:0.208" fill="#c0b2dc" d="M 117.5,143.5 C 119.027,143.427 120.027,144.094 120.5,145.5C 118.973,145.573 117.973,144.906 117.5,143.5 Z"/></g>
<g><path style="opacity:0.199" fill="#ccc3e2" d="M 210.5,145.5 C 205.5,145.5 200.5,145.5 195.5,145.5C 195.818,150.032 195.485,154.366 194.5,158.5C 194.5,153.833 194.5,149.167 194.5,144.5C 200.026,144.179 205.36,144.512 210.5,145.5 Z"/></g>
<g><path style="opacity:0.292" fill="#b1a2d4" d="M 150.5,145.5 C 153.287,144.523 156.287,144.19 159.5,144.5C 159.81,147.713 159.477,150.713 158.5,153.5C 158.5,150.833 158.5,148.167 158.5,145.5C 155.833,145.5 153.167,145.5 150.5,145.5 Z"/></g>
<g><path style="opacity:0.596" fill="#9c89c9" d="M 30.5,30.5 C 29.5005,135.665 29.1672,240.999 29.5,346.5C 28.783,337.315 28.1163,327.982 27.5,318.5C 28.8333,253.5 28.8333,188.5 27.5,123.5C 28.1522,92.1843 28.8188,60.8509 29.5,29.5C 30.1067,29.6236 30.44,29.9569 30.5,30.5 Z"/></g>
<g><path style="opacity:0.238" fill="#baadd9" d="M 345.5,294.5 C 339.833,294.5 334.167,294.5 328.5,294.5C 328.5,306.167 328.5,317.833 328.5,329.5C 234.5,329.5 140.5,329.5 46.5,329.5C 46.5,327.833 46.5,326.167 46.5,324.5C 47.4345,325.568 47.7678,326.901 47.5,328.5C 140.833,328.5 234.167,328.5 327.5,328.5C 327.5,316.833 327.5,305.167 327.5,293.5C 333.69,293.177 339.69,293.51 345.5,294.5 Z"/></g>
</svg>
